<svg xmlns="http://www.w3.org/2000/svg"  viewBox="0 0 40 40"><path fill="#fff" d="M2.5,2.5h35v35h-35V2.5z"/><path fill="#788b9c" d="M37,3v34H3V3H37 M38,2H2v36h36V2L38,2z"/><path fill="#f78f8f" d="M2.5,2.5h35v5h-35V2.5z"/><path fill="#c74343" d="M37,3v4H3V3H37 M38,2H2v6h36V2L38,2z"/><rect width="2" height="2" x="13" y="14" fill="#c5d4de"/><rect width="2" height="2" x="21" y="14" fill="#c5d4de"/><rect width="2" height="2" x="25" y="14" fill="#c5d4de"/><rect width="2" height="2" x="29" y="14" fill="#c5d4de"/><rect width="2" height="2" x="9" y="18" fill="#c5d4de"/><rect width="2" height="2" x="13" y="18" fill="#c5d4de"/><rect width="2" height="2" x="21" y="18" fill="#c5d4de"/><rect width="2" height="2" x="25" y="18" fill="#c5d4de"/><rect width="2" height="2" x="29" y="18" fill="#c5d4de"/><rect width="2" height="2" x="9" y="26" fill="#c5d4de"/><rect width="2" height="2" x="13" y="26" fill="#c5d4de"/><rect width="2" height="2" x="21" y="26" fill="#c5d4de"/><rect width="2" height="2" x="17" y="14" fill="#c5d4de"/><rect width="2" height="2" x="17" y="18" fill="#c5d4de"/><rect width="2" height="2" x="9" y="22" fill="#c5d4de"/><rect width="2" height="2" x="13" y="22" fill="#c5d4de"/><rect width="2" height="2" x="21" y="22" fill="#c5d4de"/><rect width="2" height="2" x="25" y="22" fill="#c5d4de"/><rect width="2" height="2" x="29" y="22" fill="#c5d4de"/><rect width="2" height="2" x="17" y="22" fill="#c5d4de"/><rect width="2" height="2" x="17" y="26" fill="#c5d4de"/><rect width="2" height="2" x="25" y="26" fill="#c5d4de"/><rect width="34" height="3" x="3" y="34" fill="#e1ebf2"/></svg>